<svg xmlns="http://www.w3.org/2000/svg" version="1.1" xmlns:xlink="http://www.w3.org/1999/xlink" xmlns:svgjs="http://svgjs.dev/svgjs" width="1000" height="416" viewBox="0 0 1000 416"><g transform="matrix(1,0,0,1,-0.6057918459589473,-0.01316729784969084)"><svg viewBox="0 0 396 165" data-background-color="#0074d9" preserveAspectRatio="xMidYMid meet" height="416" width="1000" xmlns="http://www.w3.org/2000/svg" xmlns:xlink="http://www.w3.org/1999/xlink"><g id="tight-bounds" transform="matrix(1,0,0,1,0.2399811605255877,0.005222606118266526)"><svg viewBox="0 0 395.52 164.98955478776347" height="164.98955478776347" width="395.52"><g><svg viewBox="0 0 395.52 164.98955478776347" height="164.98955478776347" width="395.52"><g><svg viewBox="0 0 395.52 45.71045822032296" height="45.71045822032296" width="395.52"><g><svg viewBox="0 0 395.52 45.71045822032296" height="45.71045822032296" width="395.52"><g><svg viewBox="0 0 395.52 28.9265905979458" height="28.9265905979458" width="395.52"><g transform="matrix(1,0,0,1,0,0)"><svg width="395.52" viewBox="1.7801291942596436 -31.767040252685547 583.3906860351562 42.666629791259766" height="28.9265905979458" data-palette-color="#ffffff"><path d="M16.197 10.083l-12.243 0.817-0.066-0.988 3.852-1.75-1.844-27.659-4.05-1.213-0.066-0.988 11.604-0.774c3.885-0.259 7.052 0.241 9.501 1.501 2.449 1.253 3.775 3.413 3.98 6.48v0c0.121 1.809-0.364 3.452-1.455 4.928-1.09 1.483-2.656 2.706-4.696 3.67-2.034 0.957-4.385 1.525-7.053 1.703v0l-2.863 0.191 0.794 11.904 4.539 1.19zM13.389-20.147l-3.652 0.243 0.906 13.59 4.002-0.267c2.601-0.173 4.635-0.93 6.102-2.271 1.461-1.34 2.125-2.998 1.993-4.973v0c-0.162-2.435-1.061-4.142-2.696-5.122-1.636-0.987-3.854-1.387-6.655-1.2zM58.274 7.493l-24.117 1.436-0.059-0.988 3.814-1.72-1.647-27.671-3.991-1.245-0.059-0.988 12.209-0.727 0.059 0.988-4.365 1.743 1.656 27.82 12.548-0.746 2.462-8.622 0.849-0.051zM81.387 6.808v0c-2.404 0.123-4.577-0.213-6.52-1.009-1.937-0.795-3.499-2.104-4.686-3.925-1.181-1.822-1.849-4.234-2.003-7.237v0l-0.913-17.847-4.03-1.276-0.051-0.989 11.765-0.601 0.051 0.988-3.88 1.681 0.878 17.157c0.14 2.736 0.67 4.882 1.591 6.437 0.921 1.555 2.141 2.641 3.661 3.258 1.52 0.616 3.236 0.876 5.147 0.778v0c1.585-0.081 3.003-0.477 4.254-1.189 1.252-0.705 2.229-1.77 2.931-3.194 0.708-1.425 1.005-3.259 0.89-5.503v0l-0.961-18.785-5.024-1.125-0.05-0.989 11.724-0.599 0.051 0.988-3.832 1.628 0.916 17.897c0.154 3.003-0.268 5.471-1.264 7.404-0.989 1.933-2.41 3.394-4.261 4.383-1.845 0.989-3.973 1.545-6.384 1.669zM124.393 4.344l-13.757 0.582-0.042-0.989 4.883-1.698-1.178-27.845-8.703 0.368-2.509 7.393-0.89 0.038-0.405-9.592 28.684-1.213 0.406 9.591-0.89 0.038-3.125-7.155-8.712 0.369 1.178 27.845 5.019 1.279zM153.746 3.785v0c-2.405 0.082-4.573-0.292-6.502-1.12-1.923-0.829-3.462-2.164-4.618-4.006-1.15-1.842-1.776-4.266-1.878-7.27v0l-0.606-17.86-4.008-1.345-0.033-0.989 11.773-0.4 0.033 0.99-3.907 1.613 0.583 17.17c0.093 2.738 0.586 4.893 1.48 6.464 0.894 1.571 2.095 2.677 3.604 3.319 1.509 0.643 3.22 0.931 5.133 0.867v0c1.586-0.054 3.011-0.426 4.274-1.116 1.264-0.683 2.259-1.731 2.985-3.143 0.733-1.412 1.061-3.241 0.985-5.486v0l-0.638-18.799-5.004-1.211-0.034-0.99 11.734-0.398 0.033 0.989-3.859 1.562 0.608 17.91c0.102 3.005-0.362 5.465-1.391 7.381-1.022 1.916-2.468 3.352-4.336 4.31-1.862 0.957-3.999 1.476-6.411 1.558zM186.215 2.814v0c-1.979 0.052-3.667-0.094-5.063-0.438-1.396-0.344-2.86-0.876-4.393-1.596v0l-0.706-7.904 0.839-0.022 2.728 5.62c1.21 0.895 2.364 1.519 3.46 1.871 1.103 0.345 2.214 0.502 3.333 0.473v0c2.046-0.053 3.615-0.638 4.706-1.753 1.091-1.116 1.612-2.63 1.562-4.543v0c-0.039-1.486-0.416-2.65-1.131-3.491-0.709-0.842-1.708-1.576-2.999-2.203-1.29-0.627-2.803-1.344-4.537-2.152v0c-1.539-0.72-2.829-1.447-3.869-2.18-1.046-0.733-1.852-1.586-2.417-2.558-0.572-0.979-0.878-2.211-0.917-3.697v0c-0.028-1.086 0.207-2.163 0.706-3.23 0.499-1.073 1.19-2.042 2.075-2.905 0.891-0.864 1.896-1.567 3.016-2.109 1.126-0.543 2.299-0.83 3.519-0.862v0c1.519-0.04 2.904 0.108 4.153 0.442 1.242 0.328 2.532 0.804 3.868 1.429v0l0.701 7.704-0.839 0.022-2.321-5.381c-1.049-0.833-1.998-1.412-2.847-1.736-0.849-0.325-1.816-0.473-2.902-0.445v0c-1.719 0.045-3.059 0.6-4.018 1.666-0.966 1.066-1.429 2.375-1.388 3.927v0c0.03 1.153 0.296 2.126 0.796 2.92 0.501 0.801 1.254 1.524 2.258 2.172 1.011 0.654 2.282 1.321 3.813 2.001v0c2.004 0.908 3.664 1.775 4.98 2.601 1.308 0.819 2.29 1.774 2.945 2.865 0.655 1.09 1.005 2.478 1.049 4.164v0c0.037 1.413-0.243 2.691-0.84 3.833-0.597 1.136-1.399 2.104-2.405 2.904-0.999 0.806-2.103 1.432-3.312 1.877-1.215 0.445-2.416 0.683-3.603 0.714zM231.236 1.916v0c-3.266 0.053-6.124-0.595-8.572-1.942-2.442-1.347-4.352-3.217-5.731-5.608-1.372-2.385-2.083-5.097-2.132-8.137v0c-0.039-2.406 0.368-4.69 1.22-6.85 0.859-2.154 2.058-4.064 3.598-5.729 1.54-1.658 3.326-2.964 5.357-3.917 2.031-0.96 4.204-1.458 6.517-1.495v0c1.613-0.026 2.991 0.058 4.134 0.253 1.143 0.202 2.171 0.475 3.084 0.82 0.912 0.345 1.835 0.727 2.769 1.146v0l0.323 8.266-0.939 0.015-2.665-5.858c-1.301-0.866-2.468-1.514-3.502-1.944-1.027-0.43-2.167-0.635-3.421-0.615v0c-2.506 0.04-4.716 0.686-6.629 1.938-1.913 1.251-3.413 2.942-4.499 5.073-1.086 2.131-1.607 4.517-1.565 7.156v0c0.051 3.166 0.655 5.904 1.813 8.212 1.157 2.308 2.696 4.077 4.616 5.306 1.92 1.223 4.066 1.815 6.44 1.776v0c1.686-0.027 3.119-0.284 4.298-0.769 1.179-0.479 2.227-1.039 3.143-1.681v0l2.779-5.686 0.89-0.014-0.376 7.677c-0.945 0.509-1.918 0.954-2.919 1.337-1.001 0.376-2.136 0.675-3.406 0.895-1.263 0.22-2.805 0.345-4.625 0.375zM261.924 1.08l-11.53 0.088-0.007-0.99 3.948-1.52-0.21-27.719-3.971-1.45-0.008-0.99 11.53-0.088c3.467-0.026 6.205 0.67 8.216 2.088 2.004 1.418 3.016 3.384 3.035 5.897v0c0.015 1.913-0.609 3.591-1.872 5.035-1.256 1.443-2.904 2.519-4.946 3.227v0l9.557 14.038 3.28 1.265 0.007 0.99-6.53 0.05-9.825-15.126-4.5 0.034 0.097 12.68 3.721 1.501zM261.203-29.265v0l-3.219 0.024 0.097 12.83 3.51-0.027c2.08-0.016 3.802-0.642 5.166-1.879 1.357-1.23 2.029-2.769 2.015-4.615v0c-0.015-1.98-0.704-3.535-2.066-4.665-1.362-1.13-3.196-1.686-5.503-1.668zM306.6 0.948l-24.75 0.015-0.001-0.99 3.909-1.493-0.016-27.72-3.911-1.477 0-0.99 23.36-0.014 0.005 8.31-0.84 0.001-2.674-5.989-12.08 0.007 0.007 12.33 8.66-0.005 1.978-4.111 0.85 0 0.006 10.45-0.85 0-1.982-4.009-8.66 0.005 0.007 13.36 13.47-0.008 2.666-6.481 0.84-0.001zM326.114 1.093l-12.92-0.098 0.008-0.99 3.971-1.46 0.209-27.719-3.949-1.51 0.008-0.99 13.269 0.1c3.66 0.028 6.765 0.694 9.316 2 2.544 1.306 4.477 3.084 5.799 5.334 1.316 2.257 1.964 4.805 1.943 7.645v0c-0.027 3.533-0.79 6.631-2.29 9.293-1.507 2.662-3.586 4.733-6.237 6.213-2.651 1.48-5.693 2.207-9.127 2.182zM326.193-29.258v0l-4.95-0.037-0.211 28.019 5.49 0.042c2.64 0.02 4.948-0.546 6.923-1.698 1.975-1.158 3.504-2.784 4.587-4.876 1.089-2.085 1.644-4.514 1.664-7.287v0c0.021-2.833-0.487-5.31-1.524-7.432-1.037-2.121-2.568-3.766-4.592-4.935-2.018-1.175-4.48-1.774-7.387-1.796zM362.177 1.493l-11.679-0.165 0.014-0.99 3.931-1.434 0.391-27.717-3.889-1.535 0.014-0.99 11.679 0.164-0.014 0.99-3.931 1.425-0.391 27.717 3.889 1.545zM389.034 2.038l-13.767-0.283 0.02-0.99 4.979-1.388 0.572-27.864-8.708-0.179-2.969 7.221-0.889-0.018 0.197-9.598 28.704 0.589-0.197 9.598-0.89-0.018-2.67-7.337-8.718-0.179-0.572 27.864 4.928 1.592zM430.699 3.706v0c-2.405-0.077-4.543-0.591-6.414-1.545-1.864-0.953-3.312-2.387-4.345-4.3-1.026-1.914-1.492-4.373-1.396-7.378v0l0.568-17.861-3.911-1.605 0.032-0.99 11.774 0.375-0.032 0.989-4.005 1.354-0.546 17.171c-0.087 2.739 0.264 4.921 1.052 6.547 0.789 1.626 1.915 2.809 3.379 3.549 1.464 0.74 3.152 1.141 5.064 1.202v0c1.586 0.05 3.032-0.227 4.339-0.833 1.306-0.599 2.368-1.579 3.185-2.94 0.824-1.361 1.271-3.164 1.343-5.41v0l0.598-18.8-4.913-1.538 0.031-0.989 11.734 0.373-0.031 0.99-3.954 1.305-0.57 17.911c-0.096 3.005-0.72 5.43-1.872 7.274-1.146 1.844-2.683 3.183-4.61 4.015-1.921 0.833-4.087 1.211-6.5 1.134zM464.893 4.46l-11.52-0.474 0.041-0.989 3.968-1.328 1.138-27.647-3.794-1.687 0.041-0.99 6.924 0.286 18.357 25.967 0.937-22.751-4.597-1.62 0.041-0.989 11.38 0.468-0.041 0.989-3.967 1.318-1.253 30.424-1.539-0.063-19.762-27.817-0.996 24.19 4.683 1.724zM504.585 6.226l-11.666-0.56 0.047-0.989 3.977-1.301 1.328-27.688-3.835-1.665 0.048-0.989 11.666 0.559-0.047 0.989-3.977 1.291-1.327 27.688 3.834 1.676zM527.462 7.972v0c-2.303-0.126-4.414-0.666-6.331-1.619-1.911-0.946-3.545-2.207-4.9-3.784-1.349-1.576-2.37-3.408-3.064-5.496-0.693-2.088-0.973-4.353-0.84-6.796v0c0.134-2.436 0.659-4.654 1.577-6.654 0.917-1.999 2.133-3.709 3.646-5.128 1.52-1.419 3.282-2.498 5.285-3.235 2.01-0.731 4.166-1.034 6.469-0.908v0c2.31 0.127 4.424 0.663 6.342 1.61 1.911 0.953 3.551 2.218 4.919 3.795 1.369 1.577 2.4 3.41 3.094 5.497 0.693 2.088 0.973 4.35 0.84 6.786v0c-0.134 2.443-0.66 4.664-1.577 6.664-0.917 1.999-2.143 3.708-3.676 5.127-1.533 1.418-3.301 2.493-5.304 3.224-2.01 0.738-4.17 1.043-6.48 0.917zM528.614 5.952v0c2.177 0.119 4.12-0.322 5.831-1.323 1.704-0.995 3.072-2.456 4.106-4.382 1.027-1.927 1.614-4.225 1.76-6.894v0c0.181-3.295-0.238-6.196-1.256-8.702-1.018-2.499-2.462-4.478-4.331-5.936-1.87-1.458-3.993-2.252-6.37-2.382v0c-2.17-0.119-4.127 0.311-5.869 1.291-1.736 0.98-3.128 2.432-4.175 4.358-1.054 1.925-1.654 4.223-1.8 6.892v0c-0.181 3.295 0.241 6.202 1.265 8.722 1.017 2.519 2.47 4.509 4.36 5.968 1.883 1.459 4.043 2.255 6.479 2.388zM561.532 9.507l-11.507-0.739 0.064-0.988 3.997-1.236 1.773-27.613-3.754-1.774 0.064-0.988 6.916 0.444 17.756 26.382 1.459-22.723-4.559-1.726 0.063-0.988 11.367 0.73-0.064 0.988-3.996 1.226-1.952 30.388-1.536-0.099-19.119-28.263-1.551 24.16 4.642 1.831z" opacity="1" transform="matrix(1,0,0,1,0,0)" fill="#ffffff" class="undefined-text-0" data-fill-palette-color="primary" id="text-0"></path></svg></g></svg></g><g transform="matrix(1,0,0,1,69.21599999999998,31.231680279183138)"><svg viewBox="0 0 257.088 14.478777941139825" height="14.478777941139825" width="257.088"><g transform="matrix(1,0,0,1,0,0)"><svg width="257.088" viewBox="-1.2699999809265137 -42.2400016784668 979.6300048828125 55.18000030517578" height="14.478777941139825" data-palette-color="#ffffff"><path d="M24.19-1.61L24.19-1.61 26.49-1.86Q26.88-1.86 27.09-1.64 27.29-1.42 27.29-1.07 27.29-0.73 26.72-0.37 26.15 0 25.34 0 24.54 0 24.08-0.01 23.63-0.02 23.19-0.05L23.19-0.05Q22.49-0.1 21.96-0.16 21.44-0.22 21.04-0.26 20.65-0.29 20.21-0.32L20.21-0.32Q19.38-0.37 18.65-0.37L18.65-0.37Q16.75-0.37 16.05-0.26 15.36-0.15 14.97-0.11 14.58-0.07 14.11-0.05L14.11-0.05Q11.33 0.1 10.67-0.32 10.01-0.73 10.01-1.07L10.01-1.07Q10.01-1.86 10.82-1.86L10.82-1.86 13.11-1.61Q14.5-1.61 15.01-2.49L15.01-2.49Q15.77-3.83 15.86-5.32 15.94-6.81 15.94-7.84L15.94-7.84 15.94-16.31 3.05-34.81Q2.69-35.33 2.23-35.52 1.78-35.72 0.88-35.72L0.88-35.72-0.46-35.52Q-1.27-35.52-1.27-36.16L-1.27-36.16Q-1.27-36.6-0.74-36.95-0.22-37.3 0.88-37.3L0.88-37.3 5.69-36.96 12.18-37.3Q14.53-37.3 14.53-36.16L14.53-36.16Q14.53-35.55 13.75-35.55L13.75-35.55 11.89-35.77Q10.23-35.77 10.23-34.77L10.23-34.77Q10.23-33.91 11.33-32.25L11.33-32.25 20.34-18.6 28.61-30.81Q30.49-33.72 30.49-34.75 30.49-35.79 28.83-35.79L28.83-35.79 26.98-35.55Q26.2-35.55 26.2-36.16L26.2-36.16Q26.2-36.62 26.73-36.96 27.27-37.3 28.26-37.3 29.25-37.3 29.88-37.26L29.88-37.26 31.05-37.13Q32.42-36.96 33.15-36.96L33.15-36.96Q34.28-36.96 35.01-37.06L35.01-37.06 36.13-37.26Q36.55-37.3 37.21-37.3 37.87-37.3 38.43-37 38.99-36.69 38.99-36.11 38.99-35.52 38.18-35.52L38.18-35.52 36.57-35.72Q35.23-35.72 34.55-34.81L34.55-34.81 21.36-16.21 21.36-7.84Q21.36-4.81 21.7-3.87 22.05-2.93 22.31-2.49L22.31-2.49Q22.8-1.61 24.19-1.61ZM40.57-12.87L40.57-12.87Q40.57-14.92 41.64-17.27 42.7-19.63 44.55-21.39L44.55-21.39Q48.53-25.2 54.27-25.2L54.27-25.2Q60.84-25.2 64.62-21.24L64.62-21.24Q67.89-17.8 67.89-12.74L67.89-12.74Q67.89-6.93 64.43-3.27L64.43-3.27Q60.74 0.59 54.37 0.59L54.37 0.59Q45.19 0.59 41.87-6.35L41.87-6.35Q40.57-9.06 40.57-12.87ZM48.25-20.53Q47.36-19.38 46.85-17.77 46.34-16.16 46.34-13.87 46.34-11.57 47.1-9.25 47.87-6.93 49.14-5.22L49.14-5.22Q51.9-1.56 55.49-1.56L55.49-1.56Q58.23-1.56 60.08-3.91L60.08-3.91Q62.03-6.35 62.03-9.7 62.03-13.06 61.23-15.47 60.42-17.87 59.13-19.54 57.83-21.22 56.2-22.09 54.56-22.97 53.05-22.97 51.54-22.97 50.34-22.33 49.14-21.68 48.25-20.53ZM94.92-2.78L94.92-2.78Q91.55 0.59 87.08 0.59L87.08 0.59Q82.95 0.59 80.24-1.78L80.24-1.78Q77.53-4.17 77.53-7.86L77.53-7.86 77.53-16.24Q77.53-20.8 77.13-21.78 76.73-22.75 76.14-22.92 75.56-23.1 74.9-23.1L74.9-23.1 73.53-22.92Q72.75-22.92 72.75-23.54L72.75-23.54Q72.75-24.71 75.02-24.71L75.02-24.71 78.75-24.49Q79.07-24.49 79.37-24.51L79.37-24.51 79.98-24.56Q80.63-24.63 81.26-24.63 81.88-24.63 82.18-24.5 82.49-24.37 82.69-23.97L82.69-23.97Q83.03-23.27 83.03-21.09L83.03-21.09 83.03-7.84Q83.03-3.54 86.2-2.44L86.2-2.44Q87.2-2.1 88.4-2.1L88.4-2.1Q91.65-2.1 94.92-5.42L94.92-5.42 94.92-16.21Q94.92-20.8 94.51-21.78 94.11-22.75 93.53-22.92 92.94-23.1 92.28-23.1L92.28-23.1 90.91-22.92Q90.13-22.92 90.13-23.54L90.13-23.54Q90.13-24.71 92.4-24.71L92.4-24.71 96.14-24.49Q96.45-24.49 96.75-24.51L96.75-24.51 97.36-24.56Q98.02-24.63 98.64-24.63 99.26-24.63 99.57-24.5 99.87-24.37 100.07-23.97L100.07-23.97Q100.41-23.22 100.41-21.07L100.41-21.07 100.41-8.42Q100.41-3.83 100.81-2.86 101.22-1.88 101.8-1.71 102.39-1.54 103.05-1.54L103.05-1.54 104.41-1.71Q105.2-1.71 105.2-1.1L105.2-1.1Q105.2 0.07 102.92 0.07L102.92 0.07 99.19-0.15Q98.87-0.15 98.58-0.12L98.58-0.12 97.97-0.07Q97.31 0 96.76 0 96.21 0 95.93-0.12 95.65-0.24 95.43-0.56L95.43-0.56Q95.01-1.22 94.92-2.78ZM114.4 0L114.4 0Q112.08 0 112.08-1.1L112.08-1.1Q112.08-1.78 112.88-1.78L112.88-1.78 114.08-1.61Q115.52-1.61 116.01-2.88L116.01-2.88Q116.74-4.86 116.74-8.5L116.74-8.5 116.74-15.6Q116.74-20.36 115.67-21.78L115.67-21.78Q115.18-22.41 114.48-22.62 113.79-22.83 113.14-22.91 112.49-23 112.13-23.16 111.76-23.32 111.76-23.68L111.76-23.68Q111.76-24.63 113.22-24.63L113.22-24.63 116.76-24.34Q117.23-24.34 117.67-24.39L117.67-24.39 119.47-24.58Q119.94-24.63 120.38-24.63 120.82-24.63 121.16-24.56 121.5-24.49 121.75-24.17L121.75-24.17Q122.23-23.54 122.23-21.66L122.23-21.66 122.23-19.51Q124.5-23.41 128.19-24.76L128.19-24.76Q129.44-25.2 130.72-25.2 132-25.2 132.84-24.94 133.68-24.68 134.2-24.22L134.2-24.22Q135.17-23.36 135.17-21.92L135.17-21.92 135.12-16.5Q135.12-16.19 134.95-15.99 134.78-15.8 134.56-15.8L134.56-15.8Q134.05-15.8 133.77-16.87 133.49-17.94 132.94-18.84 132.39-19.73 131.71-20.29L131.71-20.29Q130.36-21.36 128.92-21.36 127.48-21.36 126.47-20.9 125.46-20.43 124.63-19.73L124.63-19.73Q122.97-18.31 122.23-16.58L122.23-16.58 122.23-8.5Q122.23-5.08 122.48-4.19 122.72-3.3 122.99-2.73L122.99-2.73Q123.53-1.61 125.26-1.61L125.26-1.61 126.92-1.81Q127.7-1.81 127.7-1.1L127.7-1.1Q127.7-0.68 126.97-0.34 126.24 0 125.41 0 124.58 0 124.2-0.02 123.82-0.05 123.55-0.07 123.28-0.1 122.82-0.15L122.82-0.15 121.94-0.24Q121.55-0.27 121.11-0.29 120.67-0.32 120.23-0.34 119.79-0.37 119.43-0.37L119.43-0.37Q119.06-0.37 118.57-0.34L118.57-0.34 117.64-0.29Q116.81-0.24 116.3-0.17L116.3-0.17Q115.13 0 114.4 0ZM166.76 2.05L166.76 2.05Q165.98 2.05 165.98 1.44L165.98 1.44Q165.98 1.07 166.24 0.92 166.49 0.76 166.91 0.56L166.91 0.56Q167.74 0.15 167.74-0.66L167.74-0.66Q167.74-2 166.17-5.88L166.17-5.88 155.72-30.64Q154.41-33.74 153.7-34.56 152.99-35.38 152.6-35.55 152.21-35.72 151.82-35.72L151.82-35.72 150.48-35.52Q149.67-35.52 149.67-36.16L149.67-36.16Q149.67-36.6 150.2-36.95 150.72-37.3 151.82-37.3L151.82-37.3 156.63-36.96 163.12-37.3Q165.47-37.3 165.47-36.16L165.47-36.16Q165.47-35.55 164.68-35.55L164.68-35.55 162.83-35.77Q161.17-35.77 161.17-34.52L161.17-34.52Q161.17-33.74 162.15-31.35L162.15-31.35 170.72-9.99Q171.59-7.64 172.13-7.64L172.13-7.64Q172.55-7.64 173.06-9.11L173.06-9.11 179.31-27.37 178.14-30.74Q177.04-33.89 176.38-34.66 175.72-35.42 175.26-35.57 174.79-35.72 174.26-35.72L174.26-35.72 172.91-35.52Q172.11-35.52 172.11-36.16L172.11-36.16Q172.11-36.6 172.63-36.95 173.16-37.3 174.26-37.3L174.26-37.3 178.87-36.96 185.36-37.3Q187.71-37.3 187.71-36.16L187.71-36.16Q187.71-35.55 186.93-35.55L186.93-35.55 185.07-35.77Q183.51-35.77 183.51-34.57L183.51-34.57Q183.51-34.01 184.36-31.35L184.36-31.35 191.22-9.99Q191.93-7.64 192.52-7.64L192.52-7.64Q192.81-7.64 193.03-8.14 193.25-8.64 193.42-9.11L193.42-9.11 200.77-30.4Q201.97-33.81 201.97-34.8 201.97-35.79 200.3-35.79L200.3-35.79 198.45-35.55Q197.67-35.55 197.67-36.16L197.67-36.16Q197.67-36.62 198.21-36.96 198.74-37.3 199.73-37.3 200.72-37.3 201.35-37.26L201.35-37.26 202.53-37.13Q203.89-36.96 204.6-36.96L204.6-36.96Q205.75-36.96 206.46-37.06L206.46-37.06 207.6-37.26Q208.02-37.3 208.68-37.3 209.34-37.3 209.9-37 210.46-36.69 210.46-36.11 210.46-35.52 209.66-35.52L209.66-35.52 208.29-35.72Q206.85-35.72 206.07-34.77L206.07-34.77Q204.6-33.01 203.01-28.54L203.01-28.54 196.74-10.79Q193.54-2.2 193.46-1.64 193.37-1.07 193.37-0.68L193.37-0.68Q193.37 0.24 194.37 0.63L194.37 0.63Q195.15 0.95 195.15 1.44L195.15 1.44Q195.15 2.05 194.29 2.05 193.42 2.05 192.37 1.45 191.32 0.85 190.25-0.29L190.25-0.29Q187.8-2.86 186.51-6.84L186.51-6.84 180.72-23.36 175.52-8.37Q173.72-3.32 170.91-0.34L170.91-0.34Q168.66 2.05 166.76 2.05ZM215.57-2.84Q213.71-4.52 212.62-6.91 211.53-9.3 211.53-12.06 211.53-14.82 212.52-17.15 213.51-19.48 215.32-21.26L215.32-21.26Q219.27-25.2 225.16-25.2L225.16-25.2Q229.5-25.2 232.55-22.85L232.55-22.85Q234.38-21.44 235.92-18.75L235.92-18.75Q236.56-17.63 236.56-16.97L236.56-16.97Q236.56-15.89 235.43-15.5L235.43-15.5Q228.94-13.13 221.66-11.38L221.66-11.38 217.69-10.42Q218.54-6.62 221.23-4.39L221.23-4.39Q223.79-2.25 227.06-2.25L227.06-2.25Q230.16-2.25 232.92-4.22L232.92-4.22Q233.77-4.83 234.21-5.46 234.65-6.08 234.88-6.3 235.12-6.52 235.43-6.52L235.43-6.52Q236.12-6.52 236.12-5.88L236.12-5.88Q236.12-5.03 235.26-3.86 234.41-2.69 233.32-1.87 232.24-1.05 230.97-0.49L230.97-0.49Q228.45 0.59 225.46 0.59 222.47 0.59 219.96-0.29 217.44-1.17 215.57-2.84ZM217.39-12.48L217.39-12.48Q225.69-14.55 230.14-16.11L230.14-16.11Q230.72-16.31 230.72-16.8 230.72-17.29 230.53-17.91 230.33-18.53 229.97-19.21 229.6-19.9 229.06-20.57 228.53-21.24 227.82-21.78L227.82-21.78Q226.25-22.95 224.64-22.95 223.03-22.95 221.74-22.38 220.44-21.8 219.47-20.63L219.47-20.63Q217.37-18.12 217.37-13.48L217.37-13.48 217.37-12.96Q217.37-12.72 217.39-12.48ZM262.31 0L262.31 0Q260.92 0 260.72-2.49L260.72-2.49Q258.58-0.27 255.06 0.39L255.06 0.39Q253.94 0.59 252.09 0.59 250.25 0.59 248.35 0.04 246.44-0.51 245.17-1.51L245.17-1.51Q242.63-3.52 242.63-7.15L242.63-7.15Q242.63-11.11 245.78-13.13L245.78-13.13Q248.54-14.92 252.89-14.92 257.23-14.92 260.7-13.06L260.7-13.06 260.7-15.99Q260.7-19.43 258.67-21.29L258.67-21.29Q256.79-23 253.5-23L253.5-23Q249.62-23 246.47-18.7L246.47-18.7Q245.32-17.19 244.73-17.19 244.15-17.19 244.15-17.72 244.15-18.26 244.46-19.19L244.46-19.19Q245.08-20.97 245.08-24.29L245.08-24.29Q245.08-25.37 245.86-25.37L245.86-25.37Q246.83-25.37 248.05-24.41L248.05-24.41Q248.4-24.15 248.64-24.15L248.64-24.15Q248.98-24.15 249.47-24.33 249.96-24.51 250.58-24.65 251.2-24.78 251.91-24.9L251.91-24.9Q253.62-25.2 254.5-25.2L254.5-25.2Q264.05-25.2 265.61-19.21L265.61-19.21Q266.07-17.43 266.07-15.41L266.07-15.41 266.07-8.42Q266.07-4.88 266.24-4.05 266.41-3.22 266.65-2.66 266.88-2.1 267.56-1.81 268.24-1.51 268.9-1.51L268.9-1.51 270.27-1.71Q271.05-1.71 271.05-1.07L271.05-1.07Q271.05 0.07 268.78 0.07L268.78 0.07 265.05-0.15Q264.73-0.15 264.39-0.12L264.39-0.12 263.75-0.07Q263.09 0 262.31 0ZM249.85-11.11Q249.08-10.42 248.7-9.55 248.32-8.67 248.32-7.54 248.32-6.42 248.73-5.38 249.13-4.35 249.91-3.61L249.91-3.61Q251.52-2.1 254.52-2.1L254.52-2.1Q257.26-2.1 259.46-3.76L259.46-3.76Q260.16-4.3 260.7-5L260.7-5 260.7-10.82Q258.82-11.99 256.18-12.45L256.18-12.45Q255.33-12.6 254.13-12.6 252.94-12.6 251.78-12.19 250.62-11.79 249.85-11.11ZM277.76 0L277.76 0Q275.32 0 275.32-1.1L275.32-1.1Q275.32-1.78 276.13-1.78L276.13-1.78 277.4-1.61Q279.59-1.61 279.81-5.05L279.81-5.05Q279.91-6.37 279.91-8.5L279.91-8.5 279.91-32.47Q279.91-37.43 278.79-38.79L278.79-38.79Q277.93-39.77 275.74-39.97L275.74-39.97Q274.47-40.09 274.47-40.77L274.47-40.77Q274.47-41.06 274.81-41.3 275.15-41.53 275.77-41.53 276.4-41.53 276.88-41.48L276.88-41.48 277.91-41.38Q279.3-41.24 280.28-41.24L280.28-41.24Q281.67-41.24 282.66-41.41 283.65-41.58 284.05-41.58 284.45-41.58 284.73-41.49 285.01-41.41 285.16-41.11L285.16-41.11Q285.4-40.6 285.4-38.57L285.4-38.57 285.4-8.5Q285.4-5.27 285.65-4.3 285.89-3.32 286.1-2.77 286.31-2.22 286.83-1.92 287.36-1.61 287.87-1.61L287.87-1.61 289.14-1.78Q289.9-1.78 289.9-1.12L289.9-1.12Q289.9 0 287.68 0L287.68 0Q287.04 0 286.09-0.15L286.09-0.15Q284.45-0.37 283.48-0.37 282.5-0.37 282.07-0.35 281.65-0.34 281.23-0.29L281.23-0.29 280.4-0.24Q279.98-0.2 279.52-0.15L279.52-0.15Q278.47 0 277.76 0ZM314.82-6.01L314.82-6.01Q315.55-6.01 315.55-5.3L315.55-5.3Q315.55-4.47 314.35-2.82 313.14-1.17 311.18-0.29 309.23 0.59 307.23 0.59 305.23 0.59 303.74 0.2 302.25-0.2 301.22-1.07L301.22-1.07Q299.03-2.93 299.03-6.86L299.03-6.86 299.03-22.71 296.49-22.71Q294.46-22.71 294.17-23.24L294.17-23.24Q294.07-23.44 294.07-23.71 294.07-23.97 294.25-24.16 294.44-24.34 294.74-24.46 295.05-24.58 295.46-24.68L295.46-24.68 296.32-24.88Q300.2-25.81 301.56-30.1L301.56-30.1Q302.05-31.59 302.31-33.34 302.57-35.08 302.88-35.58 303.2-36.08 303.68-36.08 304.15-36.08 304.34-35.52 304.52-34.96 304.52-33.64L304.52-33.64 304.52-24.68Q311.18-24.85 312.1-24.85 313.01-24.85 313.6-24.79 314.19-24.73 314.53-24.61L314.53-24.61Q315.11-24.39 315.11-23.85L315.11-23.85Q315.11-22.71 312.28-22.71L312.28-22.71 304.52-22.71 304.52-7.57Q304.52-3.83 306.84-2.66L306.84-2.66Q307.64-2.25 308.45-2.25 309.25-2.25 309.83-2.38 310.4-2.51 311.04-2.83L311.04-2.83Q312.48-3.52 313.5-4.98L313.5-4.98Q314.21-6.01 314.82-6.01ZM323 0L323 0Q320.68 0 320.68-1.1L320.68-1.1Q320.68-1.78 321.48-1.78L321.48-1.78 322.68-1.61Q324.12-1.61 324.61-2.88L324.61-2.88Q325.34-4.86 325.34-8.5L325.34-8.5 325.34-32.54Q325.34-37.38 324.22-38.79L324.22-38.79Q323.36-39.77 321.17-39.97L321.17-39.97Q319.9-40.09 319.9-40.77L319.9-40.77Q319.9-41.06 320.24-41.3 320.58-41.53 321.2-41.53 321.83-41.53 322.34-41.48L322.34-41.48 323.34-41.38Q324.73-41.24 325.71-41.24L325.71-41.24Q327.1-41.24 328.09-41.41 329.08-41.58 329.48-41.58 329.88-41.58 330.16-41.49 330.44-41.41 330.59-41.11L330.59-41.11Q330.83-40.6 330.83-38.57L330.83-38.57 330.83-20.73Q334.89-25.2 340.33-25.2L340.33-25.2Q345.07-25.2 347.14-22.27L347.14-22.27Q348.73-20.07 348.73-16.46L348.73-16.46 348.73-8.5Q348.73-5.27 348.97-4.3 349.22-3.32 349.43-2.77 349.63-2.22 350.16-1.92 350.68-1.61 351.2-1.61L351.2-1.61 352.47-1.78Q353.22-1.78 353.22-1.12L353.22-1.12Q353.22 0 351 0L351 0Q350.37 0 349.41-0.15L349.41-0.15Q346.83-0.51 345.46-0.39L345.46-0.39 343.73-0.24Q343.31-0.2 342.85-0.15L342.85-0.15Q341.8 0 341.09 0L341.09 0Q338.65 0 338.65-1.1L338.65-1.1Q338.65-1.78 339.45-1.78L339.45-1.78 340.72-1.61Q342.92-1.61 343.14-5.05L343.14-5.05Q343.24-6.37 343.24-8.5L343.24-8.5 343.24-15.53Q343.24-20.02 340.7-21.68L340.7-21.68Q339.7-22.31 338.35-22.31 337.01-22.31 335.97-21.97 334.94-21.63 334.01-21.07L334.01-21.07Q332.23-20 330.83-18.16L330.83-18.16 330.83-8.5Q330.83-5.08 331.08-4.19 331.32-3.3 331.59-2.73L331.59-2.73Q332.13-1.61 333.67-1.61L333.67-1.61 334.86-1.78Q335.64-1.78 335.64-1.1L335.64-1.1Q335.64 0 333.23 0L333.23 0Q332.52 0 332.09-0.06 331.66-0.12 331.3-0.15L331.3-0.15 330.54-0.24Q330.15-0.27 329.71-0.29 329.27-0.32 328.83-0.34 328.39-0.37 328.03-0.37L328.03-0.37Q327.66-0.37 327.17-0.34L327.17-0.34 326.24-0.29Q325.41-0.24 324.9-0.17L324.9-0.17Q323.73 0 323 0ZM384.17-1.61L385.74-1.78Q386.54-1.78 386.54-1.12L386.54-1.12Q386.54-0.73 386.09-0.37 385.64 0 384.66 0L384.66 0Q383.25 0 382.33-0.11 381.42-0.22 381.02-0.26 380.63-0.29 380.19-0.32L380.19-0.32Q379.36-0.37 378.63-0.37L378.63-0.37Q376.73-0.37 375.92-0.24L375.92-0.24Q372.04 0.34 371.16-0.37L371.16-0.37Q370.72-0.73 370.72-1.12L370.72-1.12Q370.72-1.78 371.53-1.78L371.53-1.78 373.09-1.61Q374.48-1.61 374.99-2.49L374.99-2.49Q375.75-3.83 375.84-5.32 375.92-6.81 375.92-7.84L375.92-7.84 375.92-29.47Q375.92-32.5 375.58-33.44 375.24-34.38 374.97-34.81L374.97-34.81Q374.48-35.69 373.09-35.69L373.09-35.69 371.53-35.52Q370.72-35.52 370.72-36.18L370.72-36.18Q370.72-36.57 371.17-36.94 371.63-37.3 372.6-37.3L372.6-37.3Q374.02-37.3 374.93-37.19 375.85-37.08 376.24-37.05 376.63-37.01 377.07-36.99L377.07-36.99Q377.9-36.94 378.63-36.94L378.63-36.94Q380.54-36.94 381.34-37.06L381.34-37.06Q382.95-37.3 384.3-37.3 385.64-37.3 386.09-36.94 386.54-36.57 386.54-36.18L386.54-36.18Q386.54-35.52 385.74-35.52L385.74-35.52 384.17-35.69Q382.78-35.69 382.27-34.81L382.27-34.81Q381.51-33.47 381.43-31.98 381.34-30.49 381.34-29.47L381.34-29.47 381.34-21.09Q383.56-21.66 385.86-23.29L385.86-23.29Q389.74-26.05 394.79-30.91L394.79-30.91Q397.72-33.84 397.72-34.91L397.72-34.91Q397.72-35.72 396.58-35.72L396.58-35.72 395.01-35.52Q394.21-35.52 394.21-36.18L394.21-36.18Q394.21-36.57 394.68-36.94 395.16-37.3 396.08-37.3 396.99-37.3 397.53-37.26L397.53-37.26 398.63-37.16Q400.26-36.96 400.95-36.96L400.95-36.96 404.71-37.3Q405.95-37.3 406.38-36.94 406.81-36.57 406.81-36.18L406.81-36.18Q406.81-35.52 406-35.52L406-35.52 404.44-35.69Q403.14-35.69 400.07-32.62L400.07-32.62Q394.77-27.59 390.92-24.41 387.08-21.24 384.39-20.04L384.39-20.04Q389.42-19.21 392.69-16.82L392.69-16.82Q396.43-14.11 399.09-8.76L399.09-8.76Q401.68-3.44 404.29-1.71L404.29-1.71Q405.02-1.22 405.44-1.22L405.44-1.22Q405.98-1.22 406.24-1.32L406.24-1.32Q407.2-1.61 407.4-1.33 407.61-1.05 407.61-0.85L407.61-0.85Q407.61 0.29 405.15 0.29 402.68 0.29 400.86-0.24 399.04-0.78 397.48-2L397.48-2Q394.4-4.42 391.79-10.06L391.79-10.06Q388.72-16.41 384.3-17.77L384.3-17.77Q382.88-18.21 381.34-18.31L381.34-18.31 381.34-7.84Q381.34-4.81 381.68-3.87 382.03-2.93 382.29-2.49L382.29-2.49Q382.78-1.61 384.17-1.61L384.17-1.61ZM412.36-2.84Q410.49-4.52 409.4-6.91 408.32-9.3 408.32-12.06 408.32-14.82 409.31-17.15 410.29-19.48 412.1-21.26L412.1-21.26Q416.06-25.2 421.94-25.2L421.94-25.2Q426.29-25.2 429.34-22.85L429.34-22.85Q431.17-21.44 432.71-18.75L432.71-18.75Q433.34-17.63 433.34-16.97L433.34-16.97Q433.34-15.89 432.22-15.5L432.22-15.5Q425.72-13.13 418.45-11.38L418.45-11.38 414.47-10.42Q415.32-6.62 418.01-4.39L418.01-4.39Q420.57-2.25 423.84-2.25L423.84-2.25Q426.95-2.25 429.7-4.22L429.7-4.22Q430.56-4.83 431-5.46 431.44-6.08 431.67-6.3 431.9-6.52 432.22-6.52L432.22-6.52Q432.9-6.52 432.9-5.88L432.9-5.88Q432.9-5.03 432.05-3.86 431.19-2.69 430.11-1.87 429.02-1.05 427.75-0.49L427.75-0.49Q425.24 0.59 422.25 0.59 419.25 0.59 416.74-0.29 414.23-1.17 412.36-2.84ZM414.18-12.48L414.18-12.48Q422.48-14.55 426.92-16.11L426.92-16.11Q427.51-16.31 427.51-16.8 427.51-17.29 427.31-17.91 427.12-18.53 426.75-19.21 426.38-19.9 425.85-20.57 425.31-21.24 424.6-21.78L424.6-21.78Q423.04-22.95 421.43-22.95 419.82-22.95 418.52-22.38 417.23-21.8 416.25-20.63L416.25-20.63Q414.15-18.12 414.15-13.48L414.15-13.48 414.15-12.96Q414.15-12.72 414.18-12.48ZM436.42 11.16L436.42 11.16 437.61 11.33Q439.05 11.33 439.54 10.06L439.54 10.06Q440.27 8.08 440.27 4.44L440.27 4.44 440.27-15.6Q440.27-20.36 439.2-21.78L439.2-21.78Q438.71-22.41 438.01-22.62 437.32-22.83 436.67-22.91 436.02-23 435.66-23.16 435.29-23.32 435.29-23.68L435.29-23.68Q435.29-24.63 436.76-24.63L436.76-24.63 440.3-24.34Q440.76-24.34 441.2-24.39L441.2-24.39 443.01-24.58Q443.47-24.63 443.87-24.63 444.28-24.63 444.55-24.58 444.81-24.54 445.03-24.37L445.03-24.37Q445.5-24.05 445.67-23.07L445.67-23.07Q448.74-25.2 452.26-25.2 455.78-25.2 458.28-24.32 460.78-23.44 462.54-21.78L462.54-21.78Q466.15-18.33 466.15-12.33L466.15-12.33Q466.15-6.98 462.34-3.22L462.34-3.22Q458.49 0.59 452.87 0.59L452.87 0.59Q448.6 0.59 445.77-1.22L445.77-1.22 445.77 4.44Q445.77 7.86 446.01 8.75 446.25 9.64 446.52 10.21L446.52 10.21Q447.06 11.33 448.6 11.33L448.6 11.33 449.79 11.16Q450.58 11.16 450.58 11.84L450.58 11.84Q450.58 12.94 448.16 12.94L448.16 12.94 442.96 12.57Q442.59 12.57 442.13 12.6L442.13 12.6 441.2 12.65Q440.35 12.7 439.83 12.77L439.83 12.77Q438.66 12.94 437.93 12.94L437.93 12.94Q435.61 12.94 435.61 11.84L435.61 11.84Q435.61 11.16 436.42 11.16ZM451.53-22.97L451.53-22.97Q448.45-22.97 445.77-20.53L445.77-20.53 445.77-5.76Q447.11-2.78 450.5-1.9L450.5-1.9Q451.5-1.66 452.97-1.66 454.43-1.66 455.92-2.44 457.41-3.22 458.44-4.52L458.44-4.52Q460.54-7.18 460.54-11.11L460.54-11.11Q460.54-16.46 457.97-19.75L457.97-19.75Q455.46-22.97 451.53-22.97ZM490.69-6.01L490.69-6.01Q491.42-6.01 491.42-5.3L491.42-5.3Q491.42-4.47 490.21-2.82 489-1.17 487.05-0.29 485.09 0.59 483.09 0.59 481.09 0.59 479.6 0.2 478.11-0.2 477.09-1.07L477.09-1.07Q474.89-2.93 474.89-6.86L474.89-6.86 474.89-22.71 472.35-22.71Q470.32-22.71 470.03-23.24L470.03-23.24Q469.93-23.44 469.93-23.71 469.93-23.97 470.12-24.16 470.3-24.34 470.6-24.46 470.91-24.58 471.32-24.68L471.32-24.68 472.18-24.88Q476.06-25.81 477.43-30.1L477.43-30.1Q477.92-31.59 478.17-33.34 478.43-35.08 478.75-35.58 479.06-36.08 479.54-36.08 480.02-36.08 480.2-35.52 480.38-34.96 480.38-33.64L480.38-33.64 480.38-24.68Q487.05-24.85 487.96-24.85 488.88-24.85 489.46-24.79 490.05-24.73 490.39-24.61L490.39-24.61Q490.98-24.39 490.98-23.85L490.98-23.85Q490.98-22.71 488.15-22.71L488.15-22.71 480.38-22.71 480.38-7.57Q480.38-3.83 482.7-2.66L482.7-2.66Q483.51-2.25 484.31-2.25 485.12-2.25 485.69-2.38 486.27-2.51 486.9-2.83L486.9-2.83Q488.34-3.52 489.37-4.98L489.37-4.98Q490.07-6.01 490.69-6.01ZM537.52-34.78Q537.65-34.01 537.85-33.09 538.04-32.18 538.39-30.79 538.73-29.39 538.73-28.47 538.73-27.54 538.12-27.54L538.12-27.54Q537.68-27.54 537.09-28.83L537.09-28.83Q533.75-35.77 526.13-35.77L526.13-35.77Q522.08-35.77 519.56-34.13L519.56-34.13Q517.07-32.54 517.07-30.1L517.07-30.1Q517.07-27.49 519.1-25.68L519.1-25.68Q521.49-23.54 526.25-22.42 531.01-21.31 533.76-20.13 536.51-18.95 538.14-17.48L538.14-17.48Q541.17-14.79 541.17-10.3L541.17-10.3Q541.17-5.37 537.21-2.39L537.21-2.39Q533.26 0.56 526.72 0.56L526.72 0.56Q519.95 0.56 514.73-1.76L514.73-1.76 511.9-3.05 511.9-11.47Q511.9-14.28 512.77-14.28L512.77-14.28Q513.34-14.28 513.56-12.92L513.56-12.92Q514.09-8.08 517.83-4.93L517.83-4.93Q521.54-1.83 526.84-1.83L526.84-1.83Q533.82-1.83 535.89-5.57L535.89-5.57Q536.58-6.81 536.58-8.2 536.58-9.59 536.02-10.73 535.46-11.87 534.16-12.89L534.16-12.89Q531.43-15.06 525.49-16.36L525.49-16.36Q519-17.8 515.68-21L515.68-21Q512.68-23.88 512.68-27.78L512.68-27.78Q512.68-31.96 516.12-34.86L516.12-34.86Q519.98-38.11 526.4-38.11L526.4-38.11Q529.99-38.11 532.77-37.21L532.77-37.21 533.45-36.96Q533.99-36.79 534.23-36.79L534.23-36.79Q534.85-36.79 535.36-37.5L535.36-37.5Q536.21-38.67 536.55-38.67L536.55-38.67Q537.16-38.67 537.2-37.77 537.24-36.87 537.31-36.21 537.38-35.55 537.52-34.78ZM568.41 0L568.41 0Q567.02 0 566.83-2.49L566.83-2.49Q564.68-0.27 561.16 0.39L561.16 0.39Q560.04 0.59 558.19 0.59 556.35 0.59 554.45 0.04 552.54-0.51 551.27-1.51L551.27-1.51Q548.73-3.52 548.73-7.15L548.73-7.15Q548.73-11.11 551.88-13.13L551.88-13.13Q554.64-14.92 558.99-14.92 563.33-14.92 566.8-13.06L566.8-13.06 566.8-15.99Q566.8-19.43 564.77-21.29L564.77-21.29Q562.89-23 559.6-23L559.6-23Q555.72-23 552.57-18.7L552.57-18.7Q551.42-17.19 550.83-17.19 550.25-17.19 550.25-17.72 550.25-18.26 550.57-19.19L550.57-19.19Q551.18-20.97 551.18-24.29L551.18-24.29Q551.18-25.37 551.96-25.37L551.96-25.37Q552.93-25.37 554.15-24.41L554.15-24.41Q554.5-24.15 554.74-24.15L554.74-24.15Q555.08-24.15 555.57-24.33 556.06-24.51 556.68-24.65 557.3-24.78 558.01-24.9L558.01-24.9Q559.72-25.2 560.6-25.2L560.6-25.2Q570.15-25.2 571.71-19.21L571.71-19.21Q572.17-17.43 572.17-15.41L572.17-15.41 572.17-8.42Q572.17-4.88 572.34-4.05 572.51-3.22 572.75-2.66 572.98-2.1 573.66-1.81 574.34-1.51 575-1.51L575-1.51 576.37-1.71Q577.15-1.71 577.15-1.07L577.15-1.07Q577.15 0.07 574.88 0.07L574.88 0.07 571.15-0.15Q570.83-0.15 570.49-0.12L570.49-0.12 569.85-0.07Q569.19 0 568.41 0ZM555.95-11.11Q555.18-10.42 554.8-9.55 554.42-8.67 554.42-7.54 554.42-6.42 554.83-5.38 555.23-4.35 556.01-3.61L556.01-3.61Q557.62-2.1 560.62-2.1L560.62-2.1Q563.36-2.1 565.56-3.76L565.56-3.76Q566.26-4.3 566.8-5L566.8-5 566.8-10.82Q564.92-11.99 562.28-12.45L562.28-12.45Q561.43-12.6 560.23-12.6 559.04-12.6 557.88-12.19 556.72-11.79 555.95-11.11ZM582.47 0L582.47 0Q580.15 0 580.15-1.1L580.15-1.1Q580.15-1.78 580.96-1.78L580.96-1.78 582.15-1.61Q583.6-1.61 584.08-2.88L584.08-2.88Q584.82-4.86 584.82-8.5L584.82-8.5 584.82-22.73Q584.18-22.71 583.6-22.71L583.6-22.71 582.47-22.71Q580.08-22.71 580.08-23.85L580.08-23.85Q580.08-24.88 582.3-24.88L582.3-24.88Q583.5-24.88 584.82-24.78L584.82-24.78 584.82-27.44Q584.82-38.82 591.29-41.43L591.29-41.43Q593.26-42.24 595.5-42.24 597.73-42.24 600.54-41.6L600.54-41.6 600.54-34.69Q600.54-33.94 599.98-33.94L599.98-33.94Q599.71-33.94 599.54-34.11 599.37-34.28 599.02-35.3 598.68-36.33 598.15-37.32 597.61-38.31 597.05-38.92L597.05-38.92Q595.92-40.14 594.92-40.1 593.92-40.06 593.08-39.53 592.24-38.99 591.63-37.92L591.63-37.92Q590.31-35.6 590.31-31.45L590.31-31.45 590.31-24.73 593.63-24.8Q595.05-24.85 595.94-24.87 596.83-24.88 597.34-24.56 597.85-24.24 597.85-23.85L597.85-23.85Q597.85-22.71 594.97-22.71L594.97-22.71 590.31-22.8 590.31-8.5Q590.31-5.08 590.55-4.19 590.8-3.3 591.07-2.73L591.07-2.73Q591.6-1.61 593.34-1.61L593.34-1.61 595-1.81Q595.78-1.81 595.78-1.1L595.78-1.1Q595.78-0.68 595.05-0.34 594.31 0 593.48 0 592.65 0 592.27-0.02 591.9-0.05 591.63-0.07 591.36-0.1 590.89-0.15L590.89-0.15 590.02-0.24Q589.63-0.27 589.19-0.29 588.75-0.32 588.31-0.34 587.87-0.37 587.5-0.37L587.5-0.37Q587.14-0.37 586.65-0.34L586.65-0.34 585.72-0.29Q584.89-0.24 584.38-0.17L584.38-0.17Q583.2 0 582.47 0ZM605.04-2.84Q603.17-4.52 602.09-6.91 601-9.3 601-12.06 601-14.82 601.99-17.15 602.98-19.48 604.78-21.26L604.78-21.26Q608.74-25.2 614.62-25.2L614.62-25.2Q618.97-25.2 622.02-22.85L622.02-22.85Q623.85-21.44 625.39-18.75L625.39-18.75Q626.02-17.63 626.02-16.97L626.02-16.97Q626.02-15.89 624.9-15.5L624.9-15.5Q618.41-13.13 611.13-11.38L611.13-11.38 607.15-10.42Q608.01-6.62 610.69-4.39L610.69-4.39Q613.26-2.25 616.53-2.25L616.53-2.25Q619.63-2.25 622.39-4.22L622.39-4.22Q623.24-4.83 623.68-5.46 624.12-6.08 624.35-6.3 624.58-6.52 624.9-6.52L624.9-6.52Q625.58-6.52 625.58-5.88L625.58-5.88Q625.58-5.03 624.73-3.86 623.88-2.69 622.79-1.87 621.7-1.05 620.43-0.49L620.43-0.49Q617.92 0.59 614.93 0.59 611.94 0.59 609.42-0.29 606.91-1.17 605.04-2.84ZM606.86-12.48L606.86-12.48Q615.16-14.55 619.6-16.11L619.6-16.11Q620.19-16.31 620.19-16.8 620.19-17.29 619.99-17.91 619.8-18.53 619.43-19.21 619.07-19.9 618.53-20.57 617.99-21.24 617.28-21.78L617.28-21.78Q615.72-22.95 614.11-22.95 612.5-22.95 611.2-22.38 609.91-21.8 608.93-20.63L608.93-20.63Q606.83-18.12 606.83-13.48L606.83-13.48 606.83-12.96Q606.83-12.72 606.86-12.48ZM645.7-35.69L645.7-35.69 644.5-35.52Q643.69-35.52 643.69-36.21L643.69-36.21Q643.69-36.6 644.15-36.95 644.6-37.3 645.67-37.3 646.75-37.3 647.36-37.26L647.36-37.26 648.53-37.16Q650.21-36.96 651.58-36.96L651.58-36.96Q653.85-36.96 655.8-37.18L655.8-37.18Q659.25-37.57 661.86-37.57 664.47-37.57 666.72-36.93 668.96-36.28 670.45-35.21L670.45-35.21Q673.46-33.03 673.46-29.79L673.46-29.79Q673.46-25.68 669.43-23.05L669.43-23.05Q668.13-22.22 666.52-21.63L666.52-21.63Q671.04-20.61 673.87-17.77L673.87-17.77Q676.73-14.92 676.73-11.21L676.73-11.21Q676.73-6.1 672.99-2.88L672.99-2.88Q668.96 0.59 662.03 0.59L662.03 0.59Q660 0.59 657.76 0.22L657.76 0.22Q653.78-0.44 652.18-0.39 650.58-0.34 650.12-0.32L650.12-0.32Q649.09-0.27 648.58-0.2L648.58-0.2Q644.99 0.32 644.13-0.37L644.13-0.37Q643.69-0.73 643.69-1.12L643.69-1.12Q643.69-1.78 644.5-1.78L644.5-1.78 646.06-1.61Q647.45-1.61 647.97-2.49L647.97-2.49Q648.72-3.83 648.81-5.32 648.9-6.81 648.9-7.84L648.9-7.84 648.9-29.17Q648.9-32.18 648.55-33.13 648.21-34.08 647.94-34.62L647.94-34.62Q647.36-35.69 645.7-35.69ZM654.27-32.5L654.27-22.8Q656.61-22.31 659.04-22.31 661.47-22.31 662.91-22.69 664.35-23.07 665.4-23.88L665.4-23.88Q667.62-25.54 667.62-28.83L667.62-28.83Q667.62-31.71 665.62-33.52L665.62-33.52Q663.62-35.33 660.39-35.33 657.17-35.33 655.72-34.66 654.27-33.98 654.27-32.5L654.27-32.5ZM667.61-17.8Q666.08-18.99 663.89-19.62 661.69-20.24 659.08-20.24 656.46-20.24 654.27-19.87L654.27-19.87 654.27-5.64Q654.27-1.86 661.76-1.86L661.76-1.86Q668.08-1.86 670.09-6.86L670.09-6.86Q670.77-8.57 670.77-10.86 670.77-13.16 669.95-14.88 669.13-16.6 667.61-17.8ZM710.88-22.85L710.88-22.85 709.51-23.05Q708.07-23.05 706.92-21.66L706.92-21.66Q705.78-20.26 704.26-16.53L704.26-16.53 696.16 3.34Q692.62 10.69 689.22 11.91L689.22 11.91Q688.25 12.28 687.15 12.28 686.05 12.28 685 11.95 683.95 11.62 683.22 11.06L683.22 11.06Q681.73 9.91 681.73 8.2L681.73 8.2Q681.73 7.42 682.18 6.91 682.63 6.4 683.29 6.4 683.95 6.4 684.38 6.77 684.81 7.15 685.2 7.84 685.59 8.52 685.84 8.85 686.1 9.18 686.39 9.38L686.39 9.38Q686.93 9.77 687.74 9.77 688.54 9.77 689.13 9.52 689.71 9.28 690.42 8.4L690.42 8.4Q691.91 6.59 694.33 1.44L694.33 1.44 694.35 1.34 685.2-17.6Q682.97-22.14 681.58-22.8L681.58-22.8Q681.14-23.02 680.73-23.02L680.73-23.02 679.36-22.85Q678.58-22.85 678.58-23.39L678.58-23.39Q678.58-24.63 680.83-24.63L680.83-24.63 685.61-24.24 692.11-24.63Q693.86-24.63 694.28-23.88L694.28-23.88Q694.38-23.66 694.38-23.46L694.38-23.46Q694.38-22.85 693.59-22.85L693.59-22.85 691.74-23.07Q689.98-23.07 689.98-21.73L689.98-21.73Q689.98-21.12 690.47-20.04L690.47-20.04 696.92-5.08 702.48-19.04Q703.24-21.04 703.24-21.97L703.24-21.97Q703.24-23.07 701.7-23.07L701.7-23.07 699.7-22.85Q698.92-22.85 698.92-23.39L698.92-23.39Q698.92-24.63 701.14-24.63L701.14-24.63Q701.77-24.63 702.38-24.56L702.38-24.56 703.63-24.41Q705-24.24 705.89-24.24 706.78-24.24 707.67-24.44 708.56-24.63 709.59-24.63L709.59-24.63Q710.61-24.63 711.14-24.29 711.66-23.95 711.66-23.4 711.66-22.85 710.88-22.85ZM749.62-1.61L749.62-1.61 751.92-1.86Q752.31-1.86 752.51-1.64 752.72-1.42 752.72-1.07 752.72-0.73 752.15-0.37 751.57 0 750.77 0 749.96 0 749.51-0.01 749.06-0.02 748.62-0.05L748.62-0.05Q747.91-0.1 747.39-0.16 746.86-0.22 746.47-0.26 746.08-0.29 745.64-0.32L745.64-0.32Q744.81-0.37 744.08-0.37L744.08-0.37Q742.17-0.37 741.48-0.26 740.78-0.15 740.39-0.11 740-0.07 739.54-0.05L739.54-0.05Q736.75 0.1 736.09-0.32 735.44-0.73 735.44-1.07L735.44-1.07Q735.44-1.86 736.24-1.86L736.24-1.86 738.54-1.61Q739.93-1.61 740.44-2.49L740.44-2.49Q741.2-3.83 741.28-5.32 741.37-6.81 741.37-7.84L741.37-7.84 741.37-34.55 739.59-34.55Q738.05-34.55 736.58-34.23L736.58-34.23 734.65-33.84Q731.94-33.23 729.23-30.18L729.23-30.18 728.14-28.88Q727.65-28.3 727.23-28.3 726.82-28.3 726.82-28.86 726.82-29.42 727.05-30.21 727.28-31.01 727.62-32.08L727.62-32.08Q728.53-34.89 728.79-36.45 729.06-38.01 729.28-38.24 729.5-38.48 729.72-38.48L729.72-38.48Q730.09-38.48 730.54-37.92 730.99-37.35 731.16-37.24 731.33-37.13 731.63-37.06L731.63-37.06Q732.12-36.94 733.58-36.94L733.58-36.94 757.46-36.94Q758.95-36.94 759.74-37.46 760.53-37.99 760.81-38.23 761.09-38.48 761.39-38.48L761.39-38.48Q762-38.48 762-37.72L762-37.72Q762-37.45 761.8-37.01L761.8-37.01 761.36-35.99Q760.12-33.06 759.78-31.62 759.43-30.18 759.26-29.42L759.26-29.42Q759.02-28.22 758.56-28.22L758.56-28.22Q758.02-28.22 757.92-28.88L757.92-28.88Q757.6-30.42 756.92-31.57 756.24-32.71 755.2-33.25 754.16-33.79 753.29-33.98 752.43-34.18 751.38-34.3L751.38-34.3Q749.82-34.47 746.79-34.55L746.79-34.55 746.79-7.84Q746.79-4.81 747.13-3.87 747.47-2.93 747.74-2.49L747.74-2.49Q748.23-1.61 749.62-1.61ZM768.44 0L768.44 0Q766.12 0 766.12-1.1L766.12-1.1Q766.12-1.78 766.93-1.78L766.93-1.78 768.12-1.61Q769.56-1.61 770.05-2.88L770.05-2.88Q770.78-4.86 770.78-8.5L770.78-8.5 770.78-32.54Q770.78-37.38 769.66-38.79L769.66-38.79Q768.81-39.77 766.61-39.97L766.61-39.97Q765.34-40.09 765.34-40.77L765.34-40.77Q765.34-41.06 765.68-41.3 766.02-41.53 766.65-41.53 767.27-41.53 767.78-41.48L767.78-41.48 768.78-41.38Q770.17-41.24 771.15-41.24L771.15-41.24Q772.54-41.24 773.53-41.41 774.52-41.58 774.92-41.58 775.33-41.58 775.61-41.49 775.89-41.41 776.03-41.11L776.03-41.11Q776.28-40.6 776.28-38.57L776.28-38.57 776.28-20.73Q780.33-25.2 785.77-25.2L785.77-25.2Q790.51-25.2 792.59-22.27L792.59-22.27Q794.17-20.07 794.17-16.46L794.17-16.46 794.17-8.5Q794.17-5.27 794.42-4.3 794.66-3.32 794.87-2.77 795.08-2.22 795.6-1.92 796.13-1.61 796.64-1.61L796.64-1.61 797.91-1.78Q798.67-1.78 798.67-1.12L798.67-1.12Q798.67 0 796.44 0L796.44 0Q795.81 0 794.86-0.15L794.86-0.15Q792.27-0.51 790.9-0.39L790.9-0.39 789.17-0.24Q788.75-0.2 788.29-0.15L788.29-0.15Q787.24 0 786.53 0L786.53 0Q784.09 0 784.09-1.1L784.09-1.1Q784.09-1.78 784.9-1.78L784.9-1.78 786.17-1.61Q788.36-1.61 788.58-5.05L788.58-5.05Q788.68-6.37 788.68-8.5L788.68-8.5 788.68-15.53Q788.68-20.02 786.14-21.68L786.14-21.68Q785.14-22.31 783.8-22.31 782.45-22.31 781.42-21.97 780.38-21.63 779.45-21.07L779.45-21.07Q777.67-20 776.28-18.16L776.28-18.16 776.28-8.5Q776.28-5.08 776.52-4.19 776.77-3.3 777.03-2.73L777.03-2.73Q777.57-1.61 779.11-1.61L779.11-1.61 780.31-1.78Q781.09-1.78 781.09-1.1L781.09-1.1Q781.09 0 778.67 0L778.67 0Q777.96 0 777.54-0.06 777.11-0.12 776.74-0.15L776.74-0.15 775.98-0.24Q775.59-0.27 775.15-0.29 774.72-0.32 774.28-0.34 773.84-0.37 773.47-0.37L773.47-0.37Q773.1-0.37 772.62-0.34L772.62-0.34 771.69-0.29Q770.86-0.24 770.35-0.17L770.35-0.17Q769.17 0 768.44 0ZM806.81-2.84Q804.94-4.52 803.85-6.91 802.76-9.3 802.76-12.06 802.76-14.82 803.75-17.15 804.74-19.48 806.55-21.26L806.55-21.26Q810.5-25.2 816.39-25.2L816.39-25.2Q820.73-25.2 823.79-22.85L823.79-22.85Q825.62-21.44 827.15-18.75L827.15-18.75Q827.79-17.63 827.79-16.97L827.79-16.97Q827.79-15.89 826.67-15.5L826.67-15.5Q820.17-13.13 812.9-11.38L812.9-11.38 808.92-10.42Q809.77-6.62 812.46-4.39L812.46-4.39Q815.02-2.25 818.29-2.25L818.29-2.25Q821.39-2.25 824.15-4.22L824.15-4.22Q825.01-4.83 825.45-5.46 825.88-6.08 826.12-6.3 826.35-6.52 826.67-6.52L826.67-6.52Q827.35-6.52 827.35-5.88L827.35-5.88Q827.35-5.03 826.49-3.86 825.64-2.69 824.55-1.87 823.47-1.05 822.2-0.49L822.2-0.49Q819.68 0.59 816.69 0.59 813.7 0.59 811.19-0.29 808.67-1.17 806.81-2.84ZM808.62-12.48L808.62-12.48Q816.92-14.55 821.37-16.11L821.37-16.11Q821.95-16.31 821.95-16.8 821.95-17.29 821.76-17.91 821.56-18.53 821.2-19.21 820.83-19.9 820.29-20.57 819.76-21.24 819.05-21.78L819.05-21.78Q817.49-22.95 815.87-22.95 814.26-22.95 812.97-22.38 811.68-21.8 810.7-20.63L810.7-20.63Q808.6-18.12 808.6-13.48L808.6-13.48 808.6-12.96Q808.6-12.72 808.62-12.48ZM883.59-18.24L883.59-18.24 881.86-18.43Q880.52-18.43 880.47-14.16L880.47-14.16Q880.47-13.09 880.47-12.21L880.47-12.21 880.47-4.86 878.42-3.76Q877.44-3.25 876.6-2.64 875.76-2.03 874.49-1.39 873.22-0.76 871.73-0.32L871.73-0.32Q868.7 0.56 864.5 0.56 860.3 0.56 856.87-0.89 853.44-2.34 851.03-4.83L851.03-4.83Q845.95-10.06 845.95-17.8L845.95-17.8Q845.95-26.56 851.39-32.32L851.39-32.32Q854.88-36.01 860.06-37.4L860.06-37.4Q862.65-38.11 865.14-38.11L865.14-38.11Q869.43-38.11 872.75-36.74L872.75-36.74Q873.78-36.35 874.16-36.35 874.54-36.35 874.67-36.38 874.81-36.4 875-36.52L875-36.52Q875.29-36.69 875.98-37.38L875.98-37.38 876.69-38.11Q877.32-38.75 877.71-38.75L877.71-38.75Q878.3-38.75 878.3-37.83 878.3-36.91 878.39-36.13 878.49-35.35 878.66-34.55L878.66-34.55Q879-32.76 879.32-31.67L879.32-31.67Q879.88-29.83 879.88-28.83 879.88-27.83 879.35-27.83L879.35-27.83Q878.88-27.83 878.57-28.37L878.57-28.37Q876.83-31.59 873.15-33.54L873.15-33.54Q869.56-35.42 865.82-35.42 862.09-35.42 859.47-34.41 856.86-33.4 855.03-31.59L855.03-31.59Q851.17-27.78 851.17-21.7L851.17-21.7Q851.17-12.96 856.67-7.4L856.67-7.4Q859.96-4.05 864.36-2.83L864.36-2.83Q866.5-2.22 868.27-2.22 870.04-2.22 871.23-2.54 872.41-2.86 873.29-3.47L873.29-3.47Q875.17-4.81 875.17-7.15L875.17-7.15 875.17-12.21Q875.17-15.23 874.83-16.17 874.49-17.11 874.22-17.58L874.22-17.58Q873.73-18.43 872.34-18.43L872.34-18.43 870.53-18.19Q870.14-18.19 869.93-18.41 869.73-18.63 869.73-18.97 869.73-19.31 870.18-19.68 870.63-20.04 871.44-20.04 872.24-20.04 872.66-20.03 873.07-20.02 873.47-20 873.88-19.97 874.22-19.92L874.22-19.92 874.81-19.87Q875.98-19.68 877.27-19.68L877.27-19.68Q879.08-19.68 880.18-19.86 881.28-20.04 882.39-20.04 883.5-20.04 883.95-19.68 884.4-19.31 884.4-18.92L884.4-18.92Q884.4-18.24 883.59-18.24ZM887.74-12.87L887.74-12.87Q887.74-14.92 888.8-17.27 889.87-19.63 891.72-21.39L891.72-21.39Q895.7-25.2 901.44-25.2L901.44-25.2Q908.01-25.2 911.79-21.24L911.79-21.24Q915.06-17.8 915.06-12.74L915.06-12.74Q915.06-6.93 911.59-3.27L911.59-3.27Q907.91 0.59 901.54 0.59L901.54 0.59Q892.36 0.59 889.04-6.35L889.04-6.35Q887.74-9.06 887.74-12.87ZM895.42-20.53Q894.53-19.38 894.02-17.77 893.5-16.16 893.5-13.87 893.5-11.57 894.27-9.25 895.04-6.93 896.31-5.22L896.31-5.22Q899.07-1.56 902.66-1.56L902.66-1.56Q905.39-1.56 907.25-3.91L907.25-3.91Q909.2-6.35 909.2-9.7 909.2-13.06 908.4-15.47 907.59-17.87 906.3-19.54 905-21.22 903.37-22.09 901.73-22.97 900.22-22.97 898.7-22.97 897.51-22.33 896.31-21.68 895.42-20.53ZM940.69-1.39L940.69-1.39Q937.72 0.49 934.32 0.49 930.93 0.49 928.43-0.43 925.92-1.34 924.17-3.03L924.17-3.03Q920.55-6.49 920.55-12.38L920.55-12.38Q920.55-17.72 924.36-21.44L924.36-21.44Q928.22-25.2 933.83-25.2L933.83-25.2Q937.72-25.2 940.5-23.78L940.5-23.78 940.5-32.52Q940.5-37.38 939.38-38.79L939.38-38.79Q938.52-39.77 936.32-39.97L936.32-39.97Q935.05-40.09 935.05-40.77L935.05-40.77Q935.05-41.06 935.4-41.3 935.74-41.53 936.36-41.53 936.98-41.53 937.47-41.48L937.47-41.48 938.5-41.38Q939.89-41.24 940.86-41.24L940.86-41.24Q942.26-41.24 943.25-41.41 944.23-41.58 944.64-41.58 945.04-41.58 945.32-41.49 945.6-41.41 945.75-41.11L945.75-41.11Q945.99-40.6 945.99-38.57L945.99-38.57 945.99-8.42Q945.99-3.83 946.39-2.86 946.8-1.88 947.38-1.71 947.97-1.54 948.63-1.54L948.63-1.54 950-1.71Q950.78-1.71 950.78-1.1L950.78-1.1Q950.78 0.07 948.51 0.07L948.51 0.07 944.77-0.15Q944.45-0.15 944.16-0.12L944.16-0.12 943.55-0.07Q942.89 0 942.11 0L942.11 0Q941.04 0 940.69-1.39ZM935.18-1.56L935.18-1.56Q938.23-1.51 940.5-3.59L940.5-3.59 940.5-20.04Q938.89-22.14 935.91-22.75L935.91-22.75Q935.03-22.95 933.65-22.95 932.27-22.95 930.78-22.19 929.29-21.44 928.27-20.14L928.27-20.14Q926.17-17.48 926.17-13.6L926.17-13.6Q926.17-8.52 928.73-5.04 931.29-1.56 935.18-1.56ZM976.6-17.85Q976.6-17.31 976.07-17.31 975.53-17.31 974.96-18.47 974.38-19.63 973.31-20.56 972.23-21.48 971.01-22.05L971.01-22.05Q968.74-23.07 966.77-23.07 964.79-23.07 963.74-22.77 962.69-22.46 961.98-21.97L961.98-21.97Q960.52-21.02 960.52-19.96 960.52-18.9 960.85-18.26 961.17-17.63 962-17.09L962-17.09Q963.54-16.06 967.11-15.21 970.67-14.36 972.69-13.59 974.7-12.82 975.95-11.87L975.95-11.87Q978.36-10.01 978.36-6.93L978.36-6.93Q978.36-2.05 972.53-0.15L972.53-0.15Q970.26 0.59 967.79 0.59 965.33 0.59 963.59 0.35 961.86 0.12 960.17-0.27L960.17-0.27Q956.46-1.15 954.92-2.25L954.92-2.25 954.92-8.2Q954.92-8.45 955.1-8.62 955.27-8.79 955.54-8.79L955.54-8.79Q956.12-8.79 956.45-7.64 956.78-6.49 957.83-5.32 958.88-4.15 960.37-3.32L960.37-3.32Q963.49-1.54 967.57-1.54L967.57-1.54Q971.79-1.54 973.16-3.66L973.16-3.66Q973.63-4.39 973.63-5.25 973.63-6.1 973.31-6.64 972.99-7.18 972.11-7.69L972.11-7.69Q970.33-8.74 966.55-9.68 962.76-10.62 960.81-11.54 958.86-12.45 957.68-13.53L957.68-13.53Q955.58-15.45 955.58-18.21L955.58-18.21Q955.58-20.9 958.22-22.9L958.22-22.9Q961.25-25.2 966.3-25.2L966.3-25.2Q968.62-25.2 971.92-24.34L971.92-24.34Q972.01-24.32 972.22-24.24 972.43-24.17 972.67-24.1L972.67-24.1Q973.24-23.93 973.53-23.93L973.53-23.93Q973.89-23.93 974.41-24.56L974.41-24.56Q974.92-25.2 975.29-25.2L975.29-25.2Q975.97-25.2 975.97-24.29L975.97-24.29Q975.97-20.68 976.26-19.63L976.26-19.63Q976.6-18.38 976.6-17.85Z" opacity="1" transform="matrix(1,0,0,1,0,0)" fill="#ffffff" class="undefined-text-1" data-fill-palette-color="secondary" id="text-1"></path></svg></g></svg></g></svg></g></svg></g><g transform="matrix(1,0,0,1,140.15691121693186,54.05027268703965)"><svg viewBox="0 0 115.20617756613626 110.93928210072382" height="110.93928210072382" width="115.20617756613626"><g><svg xmlns="http://www.w3.org/2000/svg" xmlns:xlink="http://www.w3.org/1999/xlink" version="1.1" x="0" y="0" viewBox="0 0 27 26" style="enable-background:new 0 0 27 26;" xml:space="preserve" height="110.93928210072382" width="115.20617756613626" class="icon-icon-0" data-fill-palette-color="accent" id="icon-0"><g fill="#ffffff" data-fill-palette-color="accent"><polygon points="27,6 14,0 13,0 0,6 0,7 27,7  " fill="#ffffff" data-fill-palette-color="accent"></polygon><path d="M27 24h-1v-1h-1v-1h-1V11h1v-1h1V8H1v2h1v1h1v11H2v1H1v1H0v2h27V24zM9 22H8v1H7v-1H6V11h1v-1h1v1h1V22zM15 22h-1v1h-1v-1h-1V11h1v-1h1v1h1V22zM21 22h-1v1h-1v-1h-1V11h1v-1h1v1h1V22z" fill="#ffffff" data-fill-palette-color="accent"></path></g></svg></g></svg></g><g></g></svg></g><defs></defs></svg><rect width="395.52" height="164.98955478776347" fill="none" stroke="none" visibility="hidden"></rect></g></svg></g></svg>